# xmcd CD database file
#
# Track frame offsets:
#	150
#	13317
#	26437
#	39113
#	53263
#	66860
#	78982
#	100194
#	111894
#	125745
#	137535
#	150399
#
# Disc length: 2172 seconds
#
# Revision: 0
# Processed by: cddbd v1.5.2PL0 Copyright (c) Steve Scherf et al.
# Submitted via: CDex 1.70beta2
#
DISCID=8b087a0c
DTITLE=Rene Grand - El Gran Rene Grand y su Combo New York
DYEAR=1900
DGENRE=Salsa
TTITLE0=Ahora No Pare
TTITLE1=Chacho
TTITLE2=Cachita - Merengue Cachita
TTITLE3=Capullito de aleli
TTITLE4=Sabroson
TTITLE5=Siga La Gente
TTITLE6=Go-Go Mambo
TTITLE7=Cool
TTITLE8=Tengo Que Acostumbrarme
TTITLE9=Nardos Andaluces
TTITLE10=Carmen
TTITLE11=Going Cha Cha Cha
EXTD=
EXTT0=
EXTT1=
EXTT2=
EXTT3=
EXTT4=
EXTT5=
EXTT6=
EXTT7=
EXTT8=
EXTT9=
EXTT10=
EXTT11=
PLAYORDER=
